<svg width="153" height="42" viewBox="0 0 153 42" fill="none" xmlns="http://www.w3.org/2000/svg">
<path d="M19.6836 26.3003L28 26.5162C27.4518 30.8147 25.9608 34.1372 23.5302 36.4836C21.0963 38.8299 17.9233 40 14.011 40C10.0329 40 6.70321 38.6673 4.02193 36.0049C1.34064 33.3426 0 30.0358 0 26.0876C0 22.1144 1.3657 18.7732 4.10024 16.0639C6.83477 13.3546 10.202 12 14.2052 12C18.1457 12 21.4315 13.3296 24.0658 15.9857C25.8919 17.8221 27.1825 20.3812 27.9405 23.6661L19.4299 24.2324C18.4777 21.3135 16.6703 19.8556 14.011 19.8556C12.3164 19.8556 10.9162 20.4407 9.81363 21.6138C8.71104 22.787 8.15975 24.2793 8.15975 26.0876C8.15975 27.8333 8.70164 29.2755 9.7823 30.4174C10.8661 31.5562 12.2349 32.1287 13.8919 32.1287C15.574 32.1287 16.9146 31.6282 17.9139 30.6239C18.9131 29.6197 19.502 28.1743 19.6836 26.3003Z" fill="white"/>
<path d="M39.8295 20.2583V40H32V13H42.0462C45.1057 13 47.4768 13.779 49.1625 15.3339C51.0395 17.0756 51.9781 19.2829 51.9781 21.962C51.9781 24.6918 50.8142 26.994 48.4863 28.8656L53 40H44.7846L40.9841 31.2977V24.3529H41.6016C43.2471 24.3529 44.0715 23.6277 44.0715 22.1773C44.0715 20.898 43.1206 20.2583 41.2188 20.2583H39.8295Z" fill="white"/>
<path d="M86 40V22.2689C86 19.161 86.8938 16.6715 88.6843 14.8035C90.4749 12.9356 92.8603 12 95.8375 12C98.8023 12 101.071 12.9067 102.642 14.7234C104.214 16.5369 105 19.145 105 22.5477V40H97.1843V22.5477C97.1843 20.8784 96.6141 20.0453 95.4707 20.0453C94.3674 20.0453 93.8157 20.8784 93.8157 22.5477V40H86Z" fill="white"/>
<path d="M122.743 12C126.654 12 130.007 13.3733 132.804 16.1229C135.601 18.8725 137 22.1602 137 25.9891C137 29.8836 135.592 33.1932 132.772 35.9146C129.952 38.6361 126.53 40 122.5 40C118.495 40 115.08 38.633 112.247 35.8959C109.415 33.1588 108 29.8586 108 25.9891C108 22.082 109.424 18.7724 112.277 16.0635C115.129 13.3545 118.618 12 122.743 12ZM122.5 19.8548C120.813 19.8548 119.379 20.4554 118.191 21.6535C117.003 22.8515 116.411 24.2967 116.411 25.9922C116.411 27.6876 117.006 29.1328 118.201 30.3309C119.395 31.529 120.826 32.1296 122.497 32.1296C124.196 32.1296 125.634 31.5321 126.815 30.3403C127.997 29.1485 128.586 27.7001 128.586 25.9922C128.586 24.2842 127.997 22.8359 126.815 21.6441C125.634 20.4522 124.2 19.8548 122.5 19.8548Z" fill="white"/>
<path d="M153 12.5474V20.1488C152.422 19.9549 151.974 19.8548 151.658 19.8548C151.052 19.8548 150.534 20.0769 150.101 20.5179C149.669 20.9621 149.451 21.4939 149.451 22.1195C149.451 22.6545 149.688 23.3301 150.161 24.1528L150.774 25.207C151.879 27.1089 152.432 28.9452 152.432 30.7188C152.432 33.312 151.5 35.5049 149.641 37.3035C147.781 39.1022 145.507 40 142.827 40C141.539 40 140.263 39.706 139 39.121V31.4039C139.764 31.8856 140.44 32.1265 141.03 32.1265C141.728 32.1265 142.309 31.9263 142.776 31.529C143.244 31.1317 143.477 30.6343 143.477 30.0337C143.477 29.6427 143.101 28.7887 142.353 27.4749C141.157 25.3916 140.56 23.3051 140.56 21.2218C140.56 18.7067 141.463 16.5421 143.272 14.7246C145.081 12.9072 147.241 12 149.751 12C150.85 12 151.936 12.1846 153 12.5474Z" fill="white"/>
<path d="M68.1329 28.436C67.8087 27.5168 67.9755 27.0666 68.8034 26.5535C68.8664 26.5126 68.9073 26.3898 68.9073 26.3048C68.9167 25.5966 68.9104 24.8883 68.9136 24.18C68.9136 23.8589 69.0238 23.711 69.2567 23.7015C69.4959 23.6921 69.6407 23.8652 69.6407 24.1769C69.6439 24.8851 69.6471 25.5934 69.6376 26.3017C69.6345 26.4622 69.6817 26.5409 69.8328 26.6133C70.4529 26.9124 70.7236 27.6175 70.4781 28.2408C70.2326 28.8672 69.5589 29.2072 68.9073 29.0057C68.7121 28.9459 68.5988 28.9931 68.4603 29.1096C68.0731 29.4464 67.6796 29.7738 67.2861 30.1043C67.0469 30.3058 66.8234 30.309 66.6754 30.1201C66.5369 29.9469 66.5873 29.7329 66.814 29.544C67.2578 29.1726 67.6985 28.8011 68.1329 28.436ZM69.8265 27.7655C69.8233 27.4381 69.5935 27.2177 69.2567 27.2209C68.9451 27.224 68.7058 27.4601 68.6995 27.7623C68.6932 28.0488 68.9828 28.3384 69.2693 28.3415C69.5809 28.3415 69.8296 28.0865 69.8265 27.7655Z" fill="white"/>
<path d="M68.7058 33.186C68.7121 33.0444 68.709 32.9122 68.7278 32.7831C68.7562 32.5785 68.8978 32.4368 69.0867 32.4746C69.2189 32.4998 69.3984 32.6509 69.4204 32.7737C69.4708 33.0318 69.4487 33.312 69.4267 33.5795C69.4109 33.7747 69.2598 33.8723 69.0741 33.8691C68.8852 33.866 68.7562 33.759 68.7278 33.5669C68.709 33.4347 68.7121 33.3057 68.7058 33.186Z" fill="white"/>
<path d="M69.4613 21.4445C69.455 21.5736 69.4582 21.7058 69.4361 21.8317C69.4015 22.0174 69.285 22.1276 69.0898 22.1307C68.8947 22.1339 68.7562 22.0269 68.7404 21.8411C68.7153 21.5736 68.6964 21.2965 68.7467 21.0384C68.7688 20.9188 68.9513 20.7803 69.0836 20.7488C69.2819 20.7016 69.4109 20.8558 69.4424 21.0542C69.4613 21.1801 69.4456 21.3123 69.4456 21.4445C69.4487 21.4445 69.455 21.4445 69.4613 21.4445Z" fill="white"/>
<path d="M63.2159 26.947C63.3292 26.947 63.4394 26.9438 63.5527 26.947C63.7762 26.9501 63.9053 27.076 63.9179 27.2869C63.9305 27.4915 63.8014 27.6363 63.6094 27.6584C63.3513 27.6867 63.0868 27.6867 62.8287 27.6584C62.621 27.6363 62.5013 27.4852 62.5265 27.2617C62.5486 27.054 62.6776 26.9501 62.8822 26.947C62.9924 26.9438 63.1026 26.947 63.2159 26.947Z" fill="white"/>
<path d="M74.9386 27.6709C74.8253 27.6709 74.712 27.6835 74.605 27.6678C74.3846 27.6363 74.2367 27.5104 74.2493 27.2775C74.2618 27.0634 74.4003 26.9438 74.6207 26.9438C74.8348 26.9438 75.0488 26.9406 75.2629 26.9438C75.4958 26.9469 75.6375 27.0571 75.6406 27.2963C75.6438 27.5387 75.4927 27.6458 75.2723 27.6678C75.1621 27.6804 75.052 27.6741 74.9386 27.6709Z" fill="white"/>
<path d="M65.1865 23.7928C65.0795 23.7393 64.9913 23.7173 64.9347 23.6638C64.7584 23.5001 64.5821 23.3332 64.4215 23.1538C64.2767 22.9933 64.2799 22.8138 64.4373 22.6564C64.5726 22.5211 64.7993 22.5337 64.9441 22.6627C65.1267 22.8264 65.3092 22.9964 65.4509 23.1916C65.517 23.2797 65.517 23.4623 65.4698 23.5693C65.432 23.6638 65.2872 23.7204 65.1865 23.7928Z" fill="white"/>
<path d="M73.5001 32.0875C73.3836 32.0308 73.286 32.0088 73.223 31.949C73.0499 31.7947 72.8862 31.6279 72.7288 31.4579C72.5179 31.2281 72.5903 30.9574 73.0247 30.7622C73.2703 30.9826 73.5441 31.2029 73.7424 31.4736C73.8085 31.5649 73.818 31.7412 73.7739 31.8514C73.7393 31.9521 73.5976 32.0088 73.5001 32.0875Z" fill="white"/>
<path d="M72.9492 23.7708C72.8768 23.7173 72.732 23.6638 72.691 23.5662C72.6438 23.4592 72.647 23.2766 72.7099 23.1885C72.8642 22.9807 73.0468 22.7855 73.2577 22.6407C73.3552 22.5715 73.5756 22.5809 73.6795 22.6502C73.7676 22.7068 73.8432 22.9587 73.7928 23.0216C73.5913 23.2797 73.3427 23.5032 73.1066 23.7362C73.0877 23.7582 73.0405 23.7519 72.9492 23.7708Z" fill="white"/>
<path d="M64.7111 32.0497C64.4121 32.0434 64.2201 31.7349 64.3869 31.5177C64.56 31.291 64.7678 31.0833 64.9945 30.9133C65.0794 30.8503 65.3029 30.8787 65.3911 30.9542C65.4761 31.0266 65.539 31.2627 65.4887 31.332C65.2966 31.5838 65.0511 31.801 64.8213 32.0245C64.7961 32.0528 64.7363 32.0465 64.7111 32.0497Z" fill="white"/>
<path d="M74.6459 8.90332H63.8801C63.4174 8.90332 63.0396 8.52558 63.0396 8.06284V2.84049C63.0396 2.37775 63.4174 2 63.8801 2H74.6459C75.1086 2 75.4864 2.37775 75.4864 2.84049V8.06284C75.4864 8.52558 75.1086 8.90332 74.6459 8.90332Z" stroke="white" stroke-width="4" stroke-miterlimit="10"/>
<path d="M70.6713 9.91528H67.8444V14.4382H70.6713V9.91528Z" stroke="white" stroke-width="3" stroke-miterlimit="10"/>
<path d="M69.0804 39.7779C75.9685 39.7779 81.5524 34.194 81.5524 27.3059C81.5524 20.4179 75.9685 14.834 69.0804 14.834C62.1924 14.834 56.6085 20.4179 56.6085 27.3059C56.6085 34.194 62.1924 39.7779 69.0804 39.7779Z" stroke="white" stroke-width="4" stroke-miterlimit="10"/>
<path d="M69.0804 36.8786C74.3673 36.8786 78.6531 32.5928 78.6531 27.3059C78.6531 22.019 74.3673 17.7332 69.0804 17.7332C63.7935 17.7332 59.5077 22.019 59.5077 27.3059C59.5077 32.5928 63.7935 36.8786 69.0804 36.8786Z" stroke="white" stroke-miterlimit="10"/>
</svg>
